<mxfile host="app.diagrams.net" modified="2023-09-10T21:23:13.818Z" agent="Mozilla/5.0 (Macintosh; Intel Mac OS X 10_15_7) AppleWebKit/537.36 (KHTML, like Gecko) Chrome/116.0.0.0 Safari/537.36" etag="AVBwMaeRqBcnEq8WP9-0" version="21.7.4" type="github">
  <diagram name="Page-1" id="2jc7q_5kXko_MmEhznyc">
    <mxGraphModel dx="1080" dy="618" grid="1" gridSize="10" guides="1" tooltips="1" connect="1" arrows="1" fold="1" page="1" pageScale="1" pageWidth="827" pageHeight="1169" math="0" shadow="0">
      <root>
        <mxCell id="0" />
        <mxCell id="1" parent="0" />
        <mxCell id="iRkX8cPrGIzEN0Rj3wx5-1" value="Utilisateur" style="shape=umlActor;verticalLabelPosition=bottom;verticalAlign=top;html=1;outlineConnect=0;" parent="1" vertex="1">
          <mxGeometry x="50" y="140" width="30" height="60" as="geometry" />
        </mxCell>
        <mxCell id="iRkX8cPrGIzEN0Rj3wx5-2" value="" style="endArrow=classic;html=1;rounded=0;entryX=0;entryY=0;entryDx=0;entryDy=0;" parent="1" source="iRkX8cPrGIzEN0Rj3wx5-1" target="iRkX8cPrGIzEN0Rj3wx5-3" edge="1">
          <mxGeometry width="50" height="50" relative="1" as="geometry">
            <mxPoint x="80" y="180" as="sourcePoint" />
            <mxPoint x="220" y="180" as="targetPoint" />
            <Array as="points" />
          </mxGeometry>
        </mxCell>
        <mxCell id="iRkX8cPrGIzEN0Rj3wx5-3" value="Créer un compte" style="ellipse;whiteSpace=wrap;html=1;" parent="1" vertex="1">
          <mxGeometry x="220" y="60" width="120" height="80" as="geometry" />
        </mxCell>
        <mxCell id="auilQgWAgydOBBKhMKSU-1" value="Se connecter au site" style="ellipse;whiteSpace=wrap;html=1;" parent="1" vertex="1">
          <mxGeometry x="220" y="210" width="120" height="80" as="geometry" />
        </mxCell>
        <mxCell id="auilQgWAgydOBBKhMKSU-2" value="Modifier / Réinitialiser MDP" style="ellipse;whiteSpace=wrap;html=1;" parent="1" vertex="1">
          <mxGeometry x="220" y="357" width="120" height="80" as="geometry" />
        </mxCell>
        <mxCell id="auilQgWAgydOBBKhMKSU-4" value="" style="edgeStyle=orthogonalEdgeStyle;rounded=0;orthogonalLoop=1;jettySize=auto;html=1;" parent="1" source="auilQgWAgydOBBKhMKSU-3" target="iRkX8cPrGIzEN0Rj3wx5-1" edge="1">
          <mxGeometry relative="1" as="geometry" />
        </mxCell>
        <mxCell id="auilQgWAgydOBBKhMKSU-3" value="Tuteur" style="shape=umlActor;verticalLabelPosition=bottom;verticalAlign=top;html=1;outlineConnect=0;" parent="1" vertex="1">
          <mxGeometry x="30" y="275" width="30" height="60" as="geometry" />
        </mxCell>
        <mxCell id="auilQgWAgydOBBKhMKSU-6" value="" style="edgeStyle=orthogonalEdgeStyle;rounded=0;orthogonalLoop=1;jettySize=auto;html=1;" parent="1" source="auilQgWAgydOBBKhMKSU-5" target="iRkX8cPrGIzEN0Rj3wx5-1" edge="1">
          <mxGeometry relative="1" as="geometry" />
        </mxCell>
        <mxCell id="auilQgWAgydOBBKhMKSU-5" value="Elève" style="shape=umlActor;verticalLabelPosition=bottom;verticalAlign=top;html=1;" parent="1" vertex="1">
          <mxGeometry x="80" y="275" width="30" height="60" as="geometry" />
        </mxCell>
        <mxCell id="auilQgWAgydOBBKhMKSU-9" value="" style="endArrow=open;startArrow=none;endFill=0;startFill=0;endSize=8;html=1;verticalAlign=bottom;labelBackgroundColor=none;strokeWidth=1;rounded=0;entryX=0;entryY=0.5;entryDx=0;entryDy=0;" parent="1" source="iRkX8cPrGIzEN0Rj3wx5-1" target="auilQgWAgydOBBKhMKSU-2" edge="1">
          <mxGeometry width="160" relative="1" as="geometry">
            <mxPoint x="120" y="290" as="sourcePoint" />
            <mxPoint x="280" y="290" as="targetPoint" />
          </mxGeometry>
        </mxCell>
        <mxCell id="auilQgWAgydOBBKhMKSU-11" value="" style="endArrow=open;startArrow=none;endFill=0;startFill=0;endSize=8;html=1;verticalAlign=bottom;labelBackgroundColor=none;strokeWidth=1;rounded=0;entryX=0;entryY=0.5;entryDx=0;entryDy=0;" parent="1" source="iRkX8cPrGIzEN0Rj3wx5-1" target="auilQgWAgydOBBKhMKSU-1" edge="1">
          <mxGeometry width="160" relative="1" as="geometry">
            <mxPoint x="70" y="165" as="sourcePoint" />
            <mxPoint x="210" y="335" as="targetPoint" />
          </mxGeometry>
        </mxCell>
        <mxCell id="auilQgWAgydOBBKhMKSU-12" value="&amp;lt;&amp;lt;extend&amp;gt;&amp;gt;" style="html=1;verticalAlign=bottom;labelBackgroundColor=none;endArrow=open;endFill=0;dashed=1;rounded=0;exitX=0.5;exitY=0;exitDx=0;exitDy=0;entryX=0.5;entryY=1;entryDx=0;entryDy=0;" parent="1" source="auilQgWAgydOBBKhMKSU-2" target="auilQgWAgydOBBKhMKSU-1" edge="1">
          <mxGeometry width="160" relative="1" as="geometry">
            <mxPoint x="210" y="310" as="sourcePoint" />
            <mxPoint x="370" y="310" as="targetPoint" />
          </mxGeometry>
        </mxCell>
        <mxCell id="auilQgWAgydOBBKhMKSU-17" value="Learn@Home : Page de connexion" style="shape=umlFrame;whiteSpace=wrap;html=1;pointerEvents=0;recursiveResize=0;container=1;collapsible=0;width=160;" parent="1" vertex="1">
          <mxGeometry x="150" y="10" width="290" height="450" as="geometry" />
        </mxCell>
        <mxCell id="auilQgWAgydOBBKhMKSU-13" value="&amp;lt;&amp;lt;include&amp;gt;&amp;gt;" style="html=1;verticalAlign=bottom;labelBackgroundColor=none;endArrow=open;endFill=0;dashed=1;rounded=0;exitX=0.5;exitY=1;exitDx=0;exitDy=0;entryX=0.5;entryY=0;entryDx=0;entryDy=0;" parent="1" source="iRkX8cPrGIzEN0Rj3wx5-3" target="auilQgWAgydOBBKhMKSU-1" edge="1">
          <mxGeometry width="160" relative="1" as="geometry">
            <mxPoint x="360" y="210" as="sourcePoint" />
            <mxPoint x="360" y="140" as="targetPoint" />
          </mxGeometry>
        </mxCell>
      </root>
    </mxGraphModel>
  </diagram>
</mxfile>
